<svg xmlns="http://www.w3.org/2000/svg" xmlns:xlink="http://www.w3.org/1999/xlink" width="393" height="851" viewBox="0 0 393 851">
  <defs>
    <filter id="Rectangle" x="40.5" y="283.5" width="325" height="193" filterUnits="userSpaceOnUse">
      <feOffset dy="11" input="SourceAlpha"/>
      <feGaussianBlur stdDeviation="7.5" result="blur"/>
      <feFlood flood-opacity="0.2"/>
      <feComposite operator="in" in2="blur"/>
      <feComposite in="SourceGraphic"/>
    </filter>
    <filter id="Rectangle-2" x="-6" y="235" width="418" height="286" filterUnits="userSpaceOnUse">
      <feOffset dy="9" input="SourceAlpha"/>
      <feGaussianBlur stdDeviation="23" result="blur-2"/>
      <feFlood flood-opacity="0.122"/>
      <feComposite operator="in" in2="blur-2"/>
      <feComposite in="SourceGraphic"/>
    </filter>
    <filter id="Rectangle-3" x="6" y="262" width="394" height="262" filterUnits="userSpaceOnUse">
      <feOffset dy="24" input="SourceAlpha"/>
      <feGaussianBlur stdDeviation="19" result="blur-3"/>
      <feFlood flood-opacity="0.141"/>
      <feComposite operator="in" in2="blur-3"/>
      <feComposite in="SourceGraphic"/>
    </filter>
    <clipPath id="clip-Google_Pixel_5_1">
      <rect width="393" height="851"/>
    </clipPath>
  </defs>
  <g id="Google_Pixel_5_1" data-name="Google Pixel 5 – 1" clip-path="url(#clip-Google_Pixel_5_1)">
    <rect width="393" height="851" fill="#fff"/>
    <rect id="Rectangle_4" data-name="Rectangle 4" width="393" height="24" fill="#303f9f"/>
    <rect id="Rectangle_5" data-name="Rectangle 5" width="393" height="66" transform="translate(0 24)" fill="#3f51b5"/>
    <text id="Recover_password" data-name="Recover password" transform="translate(29 67)" fill="#fff" font-size="26" font-family="HelveticaNeue, Helvetica Neue"><tspan x="0" y="0">Recover password</tspan></text>
    <line id="Line_1" data-name="Line 1" x2="335" transform="translate(29 220.5)" fill="none" stroke="#707070" stroke-width="1"/>
    <text id="email_address" data-name="email@address" transform="translate(29 210)" fill="#707070" font-size="20" font-family="HelveticaNeue, Helvetica Neue"><tspan x="0" y="0">email@address</tspan></text>
    <g id="Component_1_1" data-name="Component 1 – 1" transform="translate(229 251)">
      <rect id="Rectangle_3" data-name="Rectangle 3" width="135" height="51" rx="5" fill="#3f51b5"/>
    </g>
    <text id="Send" transform="translate(273 284)" fill="#fff" font-size="20" font-family="HelveticaNeue, Helvetica Neue"><tspan x="0" y="0">Send</tspan></text>
    <path id="Path_1" data-name="Path 1" d="M0,35Z" fill="#fff" stroke="#707070" stroke-width="1"/>
    <text id="Get_instructions_sent_to_this_email_that_explain_how_" data-name="Get instructions sent to this email that explain how " transform="translate(29 118)" fill="#070101" font-size="14" font-family="HelveticaNeue, Helvetica Neue"><tspan x="0" y="13">Get instructions sent to this email that explain </tspan><tspan x="0" y="29">how </tspan></text>
    <g id="Rectangle_6" data-name="Rectangle 6" transform="translate(-45 -19)" fill="#6f7070" stroke="#707070" stroke-width="1" opacity="0.404">
      <rect width="496" height="929" stroke="none"/>
      <rect x="0.5" y="0.5" width="495" height="928" fill="none"/>
    </g>
    <g id="Light_Dialog_3_States_" data-name="Light 🌕/ Dialog (3 States)" transform="translate(63 295)">
      <g id="Container" transform="translate(-56 -348)">
        <g id="Light_Elevation" data-name="Light 🌕/Elevation" transform="translate(56 348)">
          <g id="Shadow" style="mix-blend-mode: multiply;isolation: isolate">
            <g transform="matrix(1, 0, 0, 1, -63, -295)" filter="url(#Rectangle)">
              <rect id="Rectangle-4" data-name="Rectangle" width="280" height="148" rx="4" transform="translate(63 295)" fill="#fff"/>
            </g>
            <g transform="matrix(1, 0, 0, 1, -63, -295)" filter="url(#Rectangle-2)">
              <rect id="Rectangle-5" data-name="Rectangle" width="280" height="148" rx="4" transform="translate(63 295)" fill="#fff"/>
            </g>
            <g transform="matrix(1, 0, 0, 1, -63, -295)" filter="url(#Rectangle-3)">
              <rect id="Rectangle-6" data-name="Rectangle" width="280" height="148" rx="4" transform="translate(63 295)" fill="#fff"/>
            </g>
          </g>
        </g>
        <rect id="Container-2" data-name="Container" width="280" height="148" rx="4" transform="translate(56 348)" fill="#fff"/>
        <g id="Button" transform="translate(56 444)">
          <path id="Container-3" data-name="Container" d="M0,0H280a0,0,0,0,1,0,0V48a4,4,0,0,1-4,4H4a4,4,0,0,1-4-4V0A0,0,0,0,1,0,0Z" fill="none"/>
        </g>
      </g>
      <text id="Follow_the_instructions_sent_to_email_address_to_recover_your_email." data-name="Follow the instructions sent to email@address to recover your email." transform="translate(24 59)" fill="rgba(0,0,0,0.6)" font-size="14" font-family="Roboto-Regular, Roboto" letter-spacing="0.018em"><tspan x="0" y="15">Follow the instructions sent to </tspan><tspan x="0" y="35">email@address to recover your </tspan><tspan x="0" y="55">email.</tspan></text>
      <text id="Check_your_email" data-name="Check your email" transform="translate(24 24)" fill="rgba(0,0,0,0.87)" font-size="16" font-family="Roboto-Regular, Roboto" letter-spacing="0.009em"><tspan x="0" y="17">Check your email</tspan></text>
    </g>
  </g>
</svg>
